<?xml version="1.0" encoding="utf-8"?>
<!-- Generator: Adobe Illustrator 23.0.2, SVG Export Plug-In . SVG Version: 6.00 Build 0)  -->
<svg version="1.1" id="Layer_1" xmlns="http://www.w3.org/2000/svg" xmlns:xlink="http://www.w3.org/1999/xlink" x="0px" y="0px"
	 viewBox="0 0 125 40" style="enable-background:new 0 0 125 40;" xml:space="preserve">
<style type="text/css">
	.st0{fill:#FFFFFF;}
</style>
<g>
	<g>
		<path class="st0" d="M3.3,12.6c0,0.1,0.1,0.3,0.4,0.7c0.3,0.3,0.5,0.5,0.6,0.5H5v0.7H0.5v-0.7h0.6c0.1,0,0.3-0.2,0.6-0.5
			s0.5-0.6,0.5-0.7V2.4C2.2,2.3,2,2,1.7,1.7S1.2,1.3,1.1,1.3H0.5V0.6h4.6l4.2,9.5h0.1l4.2-9.5h4.5v0.7h-0.6c-0.1,0-0.3,0.2-0.6,0.5
			c-0.3,0.3-0.5,0.5-0.5,0.7v10.2c0,0.1,0.1,0.3,0.4,0.7c0.3,0.3,0.5,0.5,0.6,0.5H18v0.7h-6.1v-0.7h0.7c0.1,0,0.3-0.2,0.6-0.5
			s0.4-0.5,0.4-0.7V3.2L8.5,14.8L3.3,3.2V12.6z"/>
		<path class="st0" d="M21.7,7c-0.4,0.7-0.6,1.5-0.6,2.6c0,1,0.3,1.8,0.8,2.4c0.5,0.6,1.2,0.9,2.1,0.9c0.8,0,1.4-0.1,1.8-0.4
			c0.4-0.3,0.8-0.7,1.1-1.3h0.7c-0.3,1.2-0.8,2-1.5,2.7c-0.7,0.6-1.6,0.9-2.7,0.9c-0.8,0-1.6-0.2-2.2-0.6c-0.7-0.4-1.2-1-1.6-1.7
			S19,11,19,10.2c0-1,0.2-1.9,0.6-2.6c0.4-0.8,0.9-1.3,1.6-1.8c0.7-0.4,1.5-0.6,2.3-0.6s1.4,0.1,1.9,0.4s1,0.6,1.4,1l-1.4,2.2
			l-0.7,0.1c0.1-0.4,0.1-0.7,0.1-1c0-1.2-0.5-1.8-1.5-1.8C22.6,6,22,6.3,21.7,7z"/>
		<path class="st0" d="M28.1,13.8h0.6c0.1,0,0.3-0.2,0.6-0.5c0.3-0.3,0.4-0.5,0.4-0.7V2.4c0-0.1-0.1-0.4-0.4-0.7s-0.5-0.5-0.6-0.5
			h-0.6V0.6h6.1v0.7h-0.6c-0.1,0-0.4,0.2-0.6,0.5c-0.3,0.3-0.4,0.5-0.4,0.7v5.2l4.5-5c0.1-0.1,0-0.2-0.1-0.4s-0.2-0.4-0.4-0.6
			s-0.3-0.3-0.4-0.3h-0.6V0.6H41v0.7h-0.3c-0.1,0-0.5,0.2-1.1,0.6s-1,0.7-1,0.8l-3.3,3.5l4.8,6.3c0.1,0.2,0.4,0.4,0.8,0.7
			c0.4,0.3,0.7,0.5,0.8,0.5H42v0.7h-4.3L33.4,8l-0.9,1v3.6c0,0.2,0.1,0.4,0.4,0.7c0.3,0.3,0.5,0.5,0.6,0.5h0.6v0.7h-6
			C28.1,14.5,28.1,13.8,28.1,13.8z"/>
		<path class="st0" d="M46.8,13.4c0.3,0.3,0.5,0.4,0.6,0.4h0.4v0.7h-5.3v-0.7h0.4c0.1,0,0.3-0.1,0.6-0.4c0.3-0.3,0.4-0.5,0.4-0.6V7
			c0-0.1-0.1-0.3-0.4-0.6C43.2,6.1,43,6,42.9,6h-0.4V5.3h3.9v7.4C46.4,12.9,46.5,13.1,46.8,13.4z M44.1,1c0.3-0.3,0.6-0.4,1-0.4
			s0.8,0.1,1,0.4c0.3,0.3,0.4,0.6,0.4,1s-0.1,0.8-0.4,1c-0.3,0.3-0.6,0.4-1,0.4s-0.8-0.1-1-0.4c-0.3-0.3-0.4-0.6-0.4-1
			C43.7,1.6,43.8,1.3,44.1,1z"/>
		<path class="st0" d="M51.9,5.3l0.3,1.8c0.4-0.4,0.7-0.8,1-1s0.6-0.5,1-0.7s0.9-0.3,1.4-0.3s0.9,0.1,1.3,0.4c0.4,0.2,0.7,0.6,0.9,1
			s0.3,0.9,0.3,1.3v4.9c0,0.2,0.1,0.4,0.4,0.6c0.3,0.3,0.4,0.4,0.6,0.4h0.4v0.7h-5.2v-0.7h0.4c0.1,0,0.3-0.1,0.6-0.4
			c0.3-0.3,0.4-0.5,0.4-0.6V8c0-0.4-0.1-0.7-0.3-0.9c-0.2-0.2-0.5-0.3-0.8-0.3s-0.6,0.1-1,0.3c-0.4,0.2-0.7,0.4-1,0.7
			s-0.4,0.5-0.4,0.7v4.3c0,0.2,0.1,0.4,0.4,0.6c0.3,0.3,0.4,0.4,0.6,0.4h0.4v0.7h-5.2v-0.7h0.4c0.1,0,0.3-0.1,0.6-0.4
			c0.3-0.3,0.4-0.5,0.4-0.6V7c0-0.2-0.1-0.4-0.4-0.6C49.1,6.1,48.9,6,48.8,6h-0.4V5.3H51.9z"/>
		<path class="st0" d="M61.5,12.2c0.3,0.4,0.7,0.7,1.2,1s1,0.4,1.6,0.4c0.4,0,0.8-0.1,1-0.3s0.4-0.4,0.4-0.8c0-0.6-0.5-1-1.4-1.4
			c-0.6-0.2-1.3-0.5-2-0.9c-1.3-0.6-2-1.5-2-2.7c0-0.8,0.3-1.5,0.8-2s1.3-0.7,2.2-0.7c0.3,0,0.7,0,1,0.1S64.8,5,64.8,5
			s0.2,0,0.4,0.1s0.4,0.1,0.5,0.1c0.2,0,0.4-0.1,0.5-0.2h0.6v2.8h-0.6c0-0.2-0.1-0.5-0.4-0.8s-0.6-0.7-1.1-1
			c-0.4-0.3-0.9-0.4-1.4-0.4c-0.4,0-0.7,0.1-0.9,0.3S62,6.7,62,7s0.1,0.5,0.3,0.7s0.6,0.4,1,0.6c0.7,0.3,1.3,0.6,1.9,0.8
			s1.1,0.6,1.5,1.1s0.6,1,0.6,1.7c0,0.9-0.3,1.5-0.9,2s-1.4,0.8-2.3,0.8c-0.3,0-0.6,0-0.8-0.1c-0.3-0.1-0.6-0.1-0.9-0.2
			c-0.4-0.1-0.8-0.2-0.9-0.2c-0.1,0-0.2,0-0.3,0.1s-0.2,0.1-0.3,0.2h-0.6v-3.2H61C61,11.5,61.2,11.8,61.5,12.2z"/>
		<path class="st0" d="M71.2,11.2c0.2,0.5,0.6,0.9,1,1.2s0.9,0.5,1.5,0.5c0.7,0,1.2-0.1,1.6-0.4c0.4-0.3,0.7-0.7,1.1-1.2H77
			c-0.8,2.3-2.1,3.4-4.1,3.4c-0.9,0-1.7-0.2-2.4-0.6c-0.7-0.4-1.2-1-1.5-1.7s-0.5-1.5-0.5-2.4c0-0.9,0.2-1.7,0.6-2.5
			c0.4-0.7,0.9-1.3,1.6-1.7c0.7-0.4,1.4-0.6,2.3-0.6c0.8,0,1.4,0.2,1.9,0.5s0.9,0.8,1.2,1.3c0.3,0.5,0.4,1,0.5,1.6l0.1,0.7l-5.8,0.5
			C70.8,10.2,70.9,10.7,71.2,11.2z M74.3,7.8c0-0.5-0.1-1-0.4-1.3C73.8,6.1,73.4,6,72.8,6c-0.8,0-1.3,0.3-1.6,0.8
			c-0.3,0.5-0.5,1.2-0.5,2l3.5-0.3C74.3,8.2,74.3,8,74.3,7.8z"/>
		<path class="st0" d="M77.8,6.4C77.5,6.1,77.3,6,77.2,6h-0.3V5.3h5.5V6h-0.5c-0.1,0-0.3,0.1-0.5,0.4s-0.3,0.5-0.3,0.7l1.9,4.2
			l2-4.2c0-0.2-0.1-0.4-0.3-0.7C84.5,6.1,84.3,6,84.2,6h-0.5V5.3h3.8V6h-0.3c-0.1,0-0.3,0.1-0.5,0.4c-0.3,0.3-0.4,0.5-0.6,0.7
			L82.8,14l-2.4,5.1l-1.1-0.5l2.6-4.8l-3.4-6.6C78.3,7,78.1,6.7,77.8,6.4z"/>
	</g>
	<g>
		<path class="st0" d="M22.8,21.9c-0.4,0.3-0.6,0.8-0.6,1.4c0,0.5,0.2,1,0.5,1.4c0.4,0.4,0.9,0.7,1.5,0.9c0.7,0.7,1.6,1.6,2.7,2.6
			s2.1,2,3.2,2.9c0.2-0.4,0.4-0.8,0.4-1.2c0.1-0.4,0.1-0.9,0.1-1.4c0-0.6-0.2-1.1-0.6-1.5s-0.9-0.6-1.5-0.6v-0.7h5.2v0.7h-0.5
			c-0.1,0-0.2,0.1-0.5,0.3s-0.4,0.4-0.6,0.7c-0.2,0.2-0.3,0.4-0.3,0.6c0,0.7-0.1,1.4-0.3,2c-0.2,0.6-0.5,1.2-0.9,1.8
			c0.4,0.3,0.9,0.8,1.5,1.2s1.2,0.9,1.6,1.2h0.8v0.7H32c-0.6,0-1.2-0.1-1.6-0.3c-0.5-0.2-1-0.5-1.5-0.9c-0.6,0.5-1.2,0.9-1.9,1.2
			c-0.7,0.3-1.6,0.4-2.5,0.4c-0.8,0-1.6-0.2-2.3-0.5c-0.7-0.3-1.3-0.8-1.7-1.5c-0.4-0.6-0.6-1.3-0.6-2.1c0-0.9,0.2-1.7,0.6-2.4
			s0.9-1.3,1.6-1.8c-0.4-0.5-0.6-0.9-0.8-1.4c-0.2-0.4-0.3-0.9-0.3-1.5c0-1,0.3-1.8,0.9-2.4s1.5-0.9,2.6-0.9c0.3,0,0.6,0,0.8,0.1
			c0.3,0.1,0.5,0.1,0.7,0.2s0.3,0.1,0.4,0.1c0.4,0.1,0.7,0.2,0.9,0.2c0.2,0,0.3,0,0.4-0.1c0.1,0,0.2-0.1,0.3-0.2h0.7v3.7H28
			c0-0.3-0.2-0.7-0.5-1.2s-0.8-1-1.3-1.4s-1.1-0.6-1.6-0.6C23.7,21.5,23.2,21.6,22.8,21.9z M21.7,28.4c-0.1,0.4-0.2,1-0.2,1.6
			s0.2,1.2,0.6,1.8s0.9,1.1,1.5,1.4c0.6,0.3,1.3,0.5,1.9,0.5c1.1,0,2-0.2,2.7-0.7c-2.2-1.8-4.2-3.7-5.9-5.8
			C22.1,27.6,21.9,28,21.7,28.4z"/>
		<path class="st0" d="M45.4,22.6c-0.6,0.7-1,1.8-1.1,3.4c0,0.5-0.1,1.1-0.1,1.6c0,0.6,0,1.2,0.1,2c0.1,1.2,0.6,2.2,1.3,3
			c0.7,0.8,1.8,1.1,3,1.1c1,0,1.9-0.2,2.6-0.6s1.3-1.1,1.7-2h1.2c-0.5,1.2-1.2,2.1-2.2,2.9c-1,0.7-2.2,1.1-3.7,1.1
			c-1.4,0-2.6-0.3-3.6-1s-1.9-1.5-2.4-2.6c-0.6-1.1-0.8-2.3-0.8-3.6c0-1.3,0.3-2.5,0.8-3.6s1.3-1.9,2.2-2.6c1-0.6,2.1-0.9,3.5-0.9
			c0.4,0,0.7,0,1,0.1s0.7,0.1,1.1,0.3c0.3,0.1,0.5,0.1,0.8,0.2s0.5,0.1,0.7,0.1c0.4,0,0.7-0.1,0.8-0.4h0.8v4.7h-0.8
			c0-0.3-0.2-0.8-0.5-1.5c-0.4-0.7-0.8-1.3-1.5-1.8c-0.6-0.5-1.3-0.8-2.1-0.8C46.8,21.6,46,22,45.4,22.6z"/>
		<path class="st0" d="M57.2,34.4c-0.7-0.4-1.3-0.9-1.8-1.7c-0.4-0.7-0.7-1.6-0.7-2.6s0.2-1.8,0.7-2.6c0.4-0.7,1-1.3,1.8-1.7
			s1.5-0.6,2.4-0.6s1.6,0.2,2.4,0.6s1.3,0.9,1.7,1.7s0.7,1.6,0.7,2.6s-0.2,1.8-0.7,2.6c-0.5,0.8-1,1.3-1.7,1.7S60.5,35,59.6,35
			S58,34.8,57.2,34.4z M61.9,31.7c0.1-0.4,0.1-0.9,0.1-1.5s0-1.1-0.1-1.5c-0.1-0.7-0.3-1.3-0.7-1.7c-0.4-0.4-0.9-0.6-1.6-0.6
			c-0.7,0-1.2,0.2-1.6,0.6c-0.4,0.4-0.6,1-0.7,1.7c-0.1,0.6-0.1,1.1-0.1,1.5s0,0.9,0.1,1.5c0.1,0.7,0.3,1.3,0.7,1.7s0.9,0.6,1.6,0.6
			C61,34,61.7,33.2,61.9,31.7z"/>
		<path class="st0" d="M68.6,25.7l0.3,1.9c0.4-0.5,0.7-0.8,1-1.1c0.2-0.2,0.6-0.5,0.9-0.7c0.4-0.2,0.8-0.3,1.3-0.3
			c0.6,0,1.1,0.2,1.6,0.6s0.7,0.8,0.9,1.4c0.4-0.4,0.7-0.8,1-1s0.6-0.5,1-0.7s0.8-0.3,1.3-0.3s0.9,0.1,1.3,0.4
			c0.4,0.2,0.7,0.6,0.9,1c0.2,0.4,0.3,0.9,0.3,1.3v4.9c0,0.2,0.1,0.4,0.4,0.6c0.3,0.3,0.4,0.4,0.6,0.4h0.4v0.7h-5.1v-0.7H77
			c0.1,0,0.3-0.1,0.6-0.4c0.3-0.3,0.4-0.5,0.4-0.6v-4.7c0-0.4-0.1-0.7-0.3-0.9c-0.2-0.2-0.5-0.3-0.8-0.3s-0.6,0.1-1,0.3
			c-0.3,0.2-0.6,0.4-0.9,0.6s-0.4,0.5-0.4,0.7v4.3c0,0.2,0.1,0.4,0.4,0.6c0.2,0.3,0.4,0.4,0.6,0.4H76v0.7h-5.1v-0.7h0.4
			c0.1,0,0.3-0.1,0.6-0.4c0.3-0.3,0.4-0.5,0.4-0.6v-4.7c0-0.4-0.1-0.7-0.3-0.9s-0.5-0.3-0.8-0.3s-0.6,0.1-1,0.3
			c-0.4,0.2-0.7,0.4-0.9,0.7s-0.4,0.5-0.4,0.7v4.3c0,0.2,0.1,0.4,0.4,0.6c0.2,0.3,0.4,0.4,0.6,0.4h0.4v0.7h-5.1v-0.7h0.4
			c0.1,0,0.3-0.1,0.6-0.4c0.3-0.3,0.4-0.5,0.4-0.6v-5.7c0-0.2-0.1-0.4-0.4-0.6c-0.3-0.3-0.5-0.4-0.6-0.4h-0.4v-0.7L68.6,25.7
			L68.6,25.7z"/>
		<path class="st0" d="M83.1,26.8c-0.3-0.3-0.5-0.4-0.6-0.4h-0.4v-0.7h3.5l0.2,1.6c0.3-0.6,0.7-1,1.2-1.3s1.1-0.5,1.9-0.5
			c0.7,0,1.4,0.2,2,0.6s1.1,0.9,1.4,1.6s0.5,1.5,0.5,2.5s-0.2,1.8-0.6,2.6c-0.4,0.7-0.9,1.3-1.5,1.7s-1.4,0.6-2.1,0.6
			S87.4,35,87,34.7c-0.4-0.3-0.7-0.6-1-1v3.8c0,0.2,0.1,0.4,0.4,0.6c0.3,0.3,0.5,0.4,0.6,0.4h0.4v0.7H82v-0.7h0.4
			c0.1,0,0.3-0.1,0.6-0.4c0.3-0.3,0.4-0.5,0.4-0.6v-10C83.5,27.2,83.3,27,83.1,26.8z M86.7,27.3c-0.4,0.5-0.7,1.1-0.8,1.8v2.3
			c0,0.7,0.2,1.2,0.6,1.7c0.4,0.4,0.9,0.6,1.6,0.6c0.6,0,1.1-0.2,1.5-0.6c0.4-0.4,0.6-1,0.6-1.7c0-0.4,0.1-0.8,0.1-1.3
			c0-0.4,0-0.9-0.1-1.3c-0.1-0.7-0.3-1.3-0.6-1.7s-0.8-0.6-1.4-0.6C87.6,26.6,87.1,26.9,86.7,27.3z"/>
		<path class="st0" d="M98,34.4c-0.5,0.4-1,0.5-1.5,0.5c-0.8,0-1.4-0.2-1.9-0.7s-0.7-1.1-0.7-1.8c0-1.4,1.1-2.3,3.3-2.8l1.9-0.4
			v-1.1c0-0.6-0.2-1-0.5-1.3s-0.8-0.4-1.5-0.4c-0.5,0-0.9,0.1-1.2,0.4c-0.3,0.2-0.4,0.6-0.4,1.1c0,0.3,0,0.6,0.1,0.9h-0.7l-1.1-1.6
			c0.4-0.5,0.9-0.9,1.6-1.2c0.7-0.3,1.5-0.5,2.4-0.5c1.1,0,2,0.2,2.7,0.7s1,1.2,1,2.1v4.8c0,0.2,0.1,0.4,0.4,0.6s0.5,0.4,0.6,0.4
			h0.4v0.7h-3.5l-0.2-1.5C99,33.7,98.6,34.1,98,34.4z M97.4,30.5c-1,0.3-1.5,0.8-1.5,1.7c0,0.4,0.1,0.7,0.4,1c0.2,0.2,0.6,0.4,1,0.4
			c0.3,0,0.7-0.1,1-0.4c0.3-0.3,0.6-0.6,0.8-0.9v-2.1L97.4,30.5z"/>
		<path class="st0" d="M106.9,25.7l0.3,1.9c0.4-0.4,0.7-0.8,1-1c0.3-0.3,0.6-0.5,1-0.7s0.9-0.3,1.4-0.3s0.9,0.1,1.3,0.4
			c0.4,0.2,0.7,0.6,0.9,1c0.2,0.4,0.3,0.9,0.3,1.3v4.9c0,0.2,0.1,0.4,0.4,0.6c0.3,0.3,0.4,0.4,0.6,0.4h0.4v0.7h-5.2v-0.7h0.4
			c0.1,0,0.3-0.1,0.6-0.4c0.3-0.3,0.4-0.5,0.4-0.6v-4.7c0-0.4-0.1-0.7-0.3-0.9c-0.2-0.2-0.5-0.3-0.8-0.3s-0.6,0.1-1,0.3
			c-0.4,0.2-0.7,0.4-1,0.7s-0.4,0.5-0.4,0.7v4.3c0,0.2,0.1,0.4,0.4,0.6c0.3,0.3,0.4,0.4,0.6,0.4h0.4V35h-5.2v-0.7h0.4
			c0.1,0,0.3-0.1,0.6-0.4c0.3-0.3,0.4-0.5,0.4-0.6v-5.7c0-0.2-0.1-0.4-0.4-0.6c-0.3-0.3-0.5-0.4-0.6-0.4h-0.4v-0.7h3.5V25.7z"/>
		<path class="st0" d="M114.8,26.8c-0.3-0.3-0.5-0.4-0.6-0.4h-0.3v-0.7h5.5v0.7H119c-0.1,0-0.3,0.1-0.5,0.4s-0.3,0.5-0.3,0.7
			l1.9,4.2l1.9-4.2c0-0.2-0.1-0.4-0.3-0.7c-0.2-0.3-0.4-0.4-0.5-0.4h-0.5v-0.7h3.8v0.7h-0.3c-0.1,0-0.3,0.1-0.5,0.4
			c-0.3,0.3-0.4,0.5-0.6,0.7l-3.3,6.9l-2.4,5.1l-1.1-0.5l2.6-4.8l-3.4-6.6C115.3,27.3,115.1,27.1,114.8,26.8z"/>
	</g>
</g>
</svg>
